# xmcd CD database file
#
# Track frame offsets:
#	150
#	20025
#	41145
#	56525
#	75905
#	89040
#	112440
#	128700
#	143027
#	157340
#
# Disc length: 2342 seconds
#
# Revision: 0
# Processed by: cddbd v1.5.2PL0 Copyright (c) Steve Scherf et al.
# Submitted via: CDex 1.70beta2
#
DISCID=8f09240a
DTITLE=Ellen and David M. Sanborn and The Bill Risby Five - Jazz Praise
DYEAR=1995
DGENRE=Jazz
TTITLE0=No Eye Has Seen
TTITLE1=Teach Me to Worhsip You
TTITLE2=Mourning Into Dancing
TTITLE3=Refresh My Heart
TTITLE4=Righteousness, Peace, Joy
TTITLE5=I Will Praise You
TTITLE6=Blessing, Honor, Glory
TTITLE7=Ancient of Days
TTITLE8=We will Worship the Lamb
TTITLE9=I Want to be Pleasing
EXTD=YEAR: 1995
EXTT0=
EXTT1=
EXTT2=
EXTT3=
EXTT4=
EXTT5=
EXTT6=
EXTT7=
EXTT8=
EXTT9=
PLAYORDER=
